# xmcd
#
# Track frame offsets:
#	150
#	12600
#	23750
#	35665
#	46885
#	60113
#	75473
#	89193
#	103215
#	118213
#	131138
#	143118
#	156653
#	168495
#
# Disc length: 2438 seconds
#
# Revision: 1
# Processed by: cddbd v1.4PL0 Copyright (c) Steve Scherf et al.
# Submitted via: EasyCDDAExtractor 5.0.7
#
DISCID=c509840e
DTITLE=Judy Garland - Over the rainbow
DYEAR=1900
DGENRE=Musical
TTITLE0=Over the rainbow
TTITLE1=DFR Jones
TTITLE2=That old black magic
TTITLE3=For me and my gal
TTITLE4=Zing! went the strings of my heart
TTITLE5=Love
TTITLE6=The boy next door
TTITLE7=On the Atchison, Topeka and the Santa Fe
TTITLE8=You'll never walk alone
TTITLE9=The trolley song
TTITLE10=On the sunny side of the street
TTITLE11=I'm always chasing rainbows
TTITLE12=When you wore a tulip
TTITLE13=You made me love you
EXTD=
EXTT0=
EXTT1=
EXTT2=
EXTT3=
EXTT4=
EXTT5=
EXTT6=
EXTT7=
EXTT8=
EXTT9=
EXTT10=
EXTT11=
EXTT12=
EXTT13=
PLAYORDER=
